<?xml version="1.0" encoding="utf-8"?>
<!-- Generator: Adobe Illustrator 26.0.1, SVG Export Plug-In . SVG Version: 6.00 Build 0)  -->
<svg version="1.1" id="圖層_1" xmlns="http://www.w3.org/2000/svg" xmlns:xlink="http://www.w3.org/1999/xlink" x="0px" y="0px"
	 viewBox="0 0 312.38 65.62" style="enable-background:new 0 0 312.38 65.62;" xml:space="preserve">
<style type="text/css">
	.st0{fill:url(#SVGID_1_);}
	.st1{fill:url(#SVGID_00000007429285184619667480000016796833894847711646_);}
	.st2{fill:url(#SVGID_00000122689399449428713820000008581490782971933331_);}
	.st3{fill:url(#SVGID_00000090982667182914053210000007316163736660472448_);}
	.st4{fill:url(#SVGID_00000077308719377015166260000005714283971521964478_);}
	.st5{fill:url(#SVGID_00000060736466771356109300000016249015001967999157_);}
	.st6{fill:#3E3A39;}
	.st7{font-family:'BebasNeue';}
	.st8{font-size:62.1532px;}
	.st9{fill:url(#SVGID_00000161626967832431820400000015584698888868186775_);}
	.st10{fill:url(#SVGID_00000160157697843336296040000015422439035663448766_);}
	.st11{fill:url(#SVGID_00000022528709765341740360000004505295439654536878_);}
	.st12{fill:url(#SVGID_00000107553223737517380770000003713651996520919950_);}
	.st13{fill:url(#SVGID_00000132083320336155052090000003404655029616790441_);}
	.st14{fill:url(#SVGID_00000065768047739460414400000010145656544709127349_);}
	.st15{fill:url(#SVGID_00000122679028382110035080000008906356354461232800_);}
	.st16{fill:url(#SVGID_00000012472215837433444150000008234583149116358308_);}
	.st17{fill:url(#SVGID_00000157277575903727235600000008560804885718992565_);}
	.st18{fill:#3168B2;}
	.st19{fill:#2250A2;}
	.st20{fill:#35A1DC;}
</style>
<g>
	<g>
		<g>
			
				<linearGradient id="SVGID_1_" gradientUnits="userSpaceOnUse" x1="155.5747" y1="34.5006" x2="305.2354" y2="34.5006" gradientTransform="matrix(1 0 0 -1 0 67.2756)">
				<stop  offset="0" style="stop-color:#3798CD"/>
				<stop  offset="1" style="stop-color:#224C97"/>
			</linearGradient>
			<path class="st0" d="M169.87,54.53c-0.37-1.12-0.62-1.8-0.62-5.34v-6.84c0-4.04-1.37-5.53-4.48-5.53h-2.36v17.71h-6.84v-43.5
				h10.32c7.08,0,10.13,3.29,10.13,10.01v3.42c0,4.47-1.43,7.33-4.47,8.76v0.12c3.42,1.43,4.54,4.66,4.54,9.2v6.71
				c0,2.11,0.06,3.67,0.75,5.28C176.84,54.52,169.87,54.52,169.87,54.53z M162.41,17.24V30.6h2.67c2.55,0,4.1-1.12,4.1-4.6v-4.29
				c0-3.11-1.06-4.47-3.48-4.47C165.7,17.24,162.41,17.24,162.41,17.24z"/>
			
				<linearGradient id="SVGID_00000060712724595408212730000013265993094397330357_" gradientUnits="userSpaceOnUse" x1="155.5777" y1="34.5106" x2="305.2383" y2="34.5106" gradientTransform="matrix(1 0 0 -1 0 67.2756)">
				<stop  offset="0" style="stop-color:#3798CD"/>
				<stop  offset="1" style="stop-color:#224C97"/>
			</linearGradient>
			<path style="fill:url(#SVGID_00000060712724595408212730000013265993094397330357_);" d="M187.7,29.35h9.38v6.21h-9.38V48.3
				h11.81v6.21h-18.64v-43.5h18.64v6.21H187.7V29.35z"/>
			
				<linearGradient id="SVGID_00000124860524941673071610000007355864160557882510_" gradientUnits="userSpaceOnUse" x1="155.5777" y1="34.4956" x2="305.2383" y2="34.4956" gradientTransform="matrix(1 0 0 -1 0 67.2756)">
				<stop  offset="0" style="stop-color:#3798CD"/>
				<stop  offset="1" style="stop-color:#224C97"/>
			</linearGradient>
			<path style="fill:url(#SVGID_00000124860524941673071610000007355864160557882510_);" d="M213.25,10.53
				c6.65,0,10.07,3.98,10.07,10.94v1.37h-6.46v-1.8c0-3.11-1.24-4.29-3.42-4.29c-2.17,0-3.42,1.18-3.42,4.29
				c0,3.17,1.37,5.53,5.84,9.45c5.72,5.03,7.52,8.64,7.52,13.61c0,6.96-3.48,10.94-10.19,10.94S203,51.06,203,44.1v-2.67h6.46v3.11
				c0,3.11,1.37,4.23,3.54,4.23s3.54-1.12,3.54-4.23c0-3.17-1.37-5.53-5.84-9.45c-5.72-5.03-7.52-8.64-7.52-13.61
				C203.18,14.51,206.6,10.53,213.25,10.53z"/>
			
				<linearGradient id="SVGID_00000150794644541594476880000014421633857998695611_" gradientUnits="userSpaceOnUse" x1="155.5777" y1="34.2156" x2="305.2383" y2="34.2156" gradientTransform="matrix(1 0 0 -1 0 67.2756)">
				<stop  offset="0" style="stop-color:#3798CD"/>
				<stop  offset="1" style="stop-color:#224C97"/>
			</linearGradient>
			<path style="fill:url(#SVGID_00000150794644541594476880000014421633857998695611_);" d="M234.13,11.03v33.56
				c0,3.11,1.37,4.23,3.54,4.23c2.18,0,3.54-1.12,3.54-4.23V11.03h6.46v33.13c0,6.96-3.48,10.94-10.19,10.94
				s-10.19-3.98-10.19-10.94V11.03H234.13z"/>
			
				<linearGradient id="SVGID_00000118371375889928031820000000212995397278566273_" gradientUnits="userSpaceOnUse" x1="155.5777" y1="34.4956" x2="305.2383" y2="34.4956" gradientTransform="matrix(1 0 0 -1 0 67.2756)">
				<stop  offset="0" style="stop-color:#3798CD"/>
				<stop  offset="1" style="stop-color:#224C97"/>
			</linearGradient>
			<path style="fill:url(#SVGID_00000118371375889928031820000000212995397278566273_);" d="M267.07,41.92h0.12l4.6-30.89h9.51v43.5
				h-6.46V23.33h-0.12l-4.6,31.2h-6.46l-4.97-30.76h-0.12v30.76h-5.97v-43.5h9.51L267.07,41.92z"/>
			
				<linearGradient id="SVGID_00000164485947584773992270000001460450810669256347_" gradientUnits="userSpaceOnUse" x1="155.5777" y1="34.5106" x2="305.2383" y2="34.5106" gradientTransform="matrix(1 0 0 -1 0 67.2756)">
				<stop  offset="0" style="stop-color:#3798CD"/>
				<stop  offset="1" style="stop-color:#224C97"/>
			</linearGradient>
			<path style="fill:url(#SVGID_00000164485947584773992270000001460450810669256347_);" d="M293.43,29.35h9.38v6.21h-9.38V48.3
				h11.81v6.21H286.6v-43.5h18.64v6.21h-11.81L293.43,29.35L293.43,29.35z"/>
		</g>
	</g>
</g>
<g>
	<g>
		<g>
			<text transform="matrix(1 0 0 1 76.2915 54.4945)" class="st6 st7 st8">ACE </text>
		</g>
	</g>
	<g>
		<g>
			<g>
				<g>
					
						<linearGradient id="SVGID_00000173160857471248311150000015622850571758512006_" gradientUnits="userSpaceOnUse" x1="76.9747" y1="34.5356" x2="147.3301" y2="34.5356" gradientTransform="matrix(1 0 0 -1 0 67.2756)">
						<stop  offset="0" style="stop-color:#595757"/>
						<stop  offset="1" style="stop-color:#3E3A39"/>
					</linearGradient>
					<path style="fill:url(#SVGID_00000173160857471248311150000015622850571758512006_);" d="M100.9,54.49H94l-1.18-7.89h-8.39
						l-1.18,7.89h-6.28l6.96-43.5h10.01L100.9,54.49z M85.3,40.7h6.59l-3.23-22h-0.12L85.3,40.7z"/>
					
						<linearGradient id="SVGID_00000092457535705825744480000011712041474962398879_" gradientUnits="userSpaceOnUse" x1="76.9752" y1="34.5356" x2="147.3306" y2="34.5356" gradientTransform="matrix(1 0 0 -1 0 67.2756)">
						<stop  offset="0" style="stop-color:#595757"/>
						<stop  offset="1" style="stop-color:#3E3A39"/>
					</linearGradient>
					<path style="fill:url(#SVGID_00000092457535705825744480000011712041474962398879_);" d="M124.21,38.27v5.78
						c0,6.96-3.48,10.94-10.19,10.94s-10.19-3.98-10.19-10.94V21.43c0-6.96,3.48-10.94,10.19-10.94s10.19,3.98,10.19,10.94v4.23
						h-6.46V21c0-3.11-1.37-4.29-3.54-4.29c-2.18,0-3.54,1.18-3.54,4.29v23.49c0,3.11,1.37,4.23,3.54,4.23s3.54-1.12,3.54-4.23
						v-6.21L124.21,38.27L124.21,38.27z"/>
					
						<linearGradient id="SVGID_00000151542626425098372250000012641612979502596265_" gradientUnits="userSpaceOnUse" x1="76.9752" y1="34.5456" x2="147.3306" y2="34.5456" gradientTransform="matrix(1 0 0 -1 0 67.2756)">
						<stop  offset="0" style="stop-color:#595757"/>
						<stop  offset="1" style="stop-color:#3E3A39"/>
					</linearGradient>
					<path style="fill:url(#SVGID_00000151542626425098372250000012641612979502596265_);" d="M135.52,29.32h9.38v6.21h-9.38v12.74
						h11.81v6.21h-18.64v-43.5h18.64v6.21h-11.81V29.32z"/>
				</g>
			</g>
			<g>
				
					<linearGradient id="SVGID_00000045597207618537585760000013306266653380826512_" gradientUnits="userSpaceOnUse" x1="76.9747" y1="34.5356" x2="147.3301" y2="34.5356" gradientTransform="matrix(1 0 0 -1 0 67.2756)">
					<stop  offset="0" style="stop-color:#595757"/>
					<stop  offset="1" style="stop-color:#3E3A39"/>
				</linearGradient>
				<path style="fill:url(#SVGID_00000045597207618537585760000013306266653380826512_);" d="M100.9,54.49H94l-1.18-7.89h-8.39
					l-1.18,7.89h-6.28l6.96-43.5h10.01L100.9,54.49z M85.3,40.7h6.59l-3.23-22h-0.12L85.3,40.7z"/>
				
					<linearGradient id="SVGID_00000060030968728521760890000012970256891845516449_" gradientUnits="userSpaceOnUse" x1="76.9752" y1="34.5356" x2="147.3306" y2="34.5356" gradientTransform="matrix(1 0 0 -1 0 67.2756)">
					<stop  offset="0" style="stop-color:#595757"/>
					<stop  offset="1" style="stop-color:#3E3A39"/>
				</linearGradient>
				<path style="fill:url(#SVGID_00000060030968728521760890000012970256891845516449_);" d="M124.21,38.27v5.78
					c0,6.96-3.48,10.94-10.19,10.94s-10.19-3.98-10.19-10.94V21.43c0-6.96,3.48-10.94,10.19-10.94s10.19,3.98,10.19,10.94v4.23
					h-6.46V21c0-3.11-1.37-4.29-3.54-4.29c-2.18,0-3.54,1.18-3.54,4.29v23.49c0,3.11,1.37,4.23,3.54,4.23s3.54-1.12,3.54-4.23v-6.21
					L124.21,38.27L124.21,38.27z"/>
				
					<linearGradient id="SVGID_00000117640373026541314740000002335463863129020845_" gradientUnits="userSpaceOnUse" x1="76.9752" y1="34.5456" x2="147.3306" y2="34.5456" gradientTransform="matrix(1 0 0 -1 0 67.2756)">
					<stop  offset="0" style="stop-color:#595757"/>
					<stop  offset="1" style="stop-color:#3E3A39"/>
				</linearGradient>
				<path style="fill:url(#SVGID_00000117640373026541314740000002335463863129020845_);" d="M135.52,29.32h9.38v6.21h-9.38v12.74
					h11.81v6.21h-18.64v-43.5h18.64v6.21h-11.81V29.32z"/>
			</g>
			<g>
				<g>
					
						<linearGradient id="SVGID_00000171712903382491892140000001972319055934893247_" gradientUnits="userSpaceOnUse" x1="76.9747" y1="34.5356" x2="147.3301" y2="34.5356" gradientTransform="matrix(1 0 0 -1 0 67.2756)">
						<stop  offset="0" style="stop-color:#595757"/>
						<stop  offset="1" style="stop-color:#3E3A39"/>
					</linearGradient>
					<path style="fill:url(#SVGID_00000171712903382491892140000001972319055934893247_);" d="M100.9,54.49H94l-1.18-7.89h-8.39
						l-1.18,7.89h-6.28l6.96-43.5h10.01L100.9,54.49z M85.3,40.7h6.59l-3.23-22h-0.12L85.3,40.7z"/>
					
						<linearGradient id="SVGID_00000008147634734307921340000009468095081994795696_" gradientUnits="userSpaceOnUse" x1="76.9752" y1="34.5356" x2="147.3306" y2="34.5356" gradientTransform="matrix(1 0 0 -1 0 67.2756)">
						<stop  offset="0" style="stop-color:#595757"/>
						<stop  offset="1" style="stop-color:#3E3A39"/>
					</linearGradient>
					<path style="fill:url(#SVGID_00000008147634734307921340000009468095081994795696_);" d="M124.21,38.27v5.78
						c0,6.96-3.48,10.94-10.19,10.94s-10.19-3.98-10.19-10.94V21.43c0-6.96,3.48-10.94,10.19-10.94s10.19,3.98,10.19,10.94v4.23
						h-6.46V21c0-3.11-1.37-4.29-3.54-4.29c-2.18,0-3.54,1.18-3.54,4.29v23.49c0,3.11,1.37,4.23,3.54,4.23s3.54-1.12,3.54-4.23
						v-6.21L124.21,38.27L124.21,38.27z"/>
					
						<linearGradient id="SVGID_00000075842462083624978370000018273167622469427352_" gradientUnits="userSpaceOnUse" x1="76.9752" y1="34.5456" x2="147.3306" y2="34.5456" gradientTransform="matrix(1 0 0 -1 0 67.2756)">
						<stop  offset="0" style="stop-color:#595757"/>
						<stop  offset="1" style="stop-color:#3E3A39"/>
					</linearGradient>
					<path style="fill:url(#SVGID_00000075842462083624978370000018273167622469427352_);" d="M135.52,29.32h9.38v6.21h-9.38v12.74
						h11.81v6.21h-18.64v-43.5h18.64v6.21h-11.81V29.32z"/>
				</g>
			</g>
		</g>
	</g>
</g>
<g>
	<polygon class="st18" points="26.08,62.19 45.74,62.19 35.91,45.17 	"/>
	<polygon class="st19" points="0,62.19 20.75,62.19 35.91,35.94 35.91,0 	"/>
	<polygon class="st20" points="35.91,0 35.91,35.94 51.06,62.19 71.81,62.19 	"/>
</g>
</svg>
